<svg width="28" height="28" viewBox="0 0 28 28" fill="none" xmlns="http://www.w3.org/2000/svg">
<path d="M7.33404 6.0294C7.0764 6.0294 6.82455 6.10579 6.61034 6.24893C6.39612 6.39206 6.22916 6.59551 6.13057 6.83353C6.03197 7.07156 6.00618 7.33347 6.05644 7.58616C6.1067 7.83884 6.23077 8.07095 6.41294 8.25313C6.59512 8.4353 6.82722 8.55937 7.07991 8.60963C7.3326 8.65989 7.59451 8.63409 7.83254 8.5355C8.07056 8.43691 8.274 8.26995 8.41714 8.05573C8.56027 7.84151 8.63667 7.58966 8.63667 7.33203C8.63667 6.98655 8.49943 6.65522 8.25514 6.41093C8.01085 6.16664 7.67952 6.0294 7.33404 6.0294ZM26.4957 13.5586L14.1468 1.23571C14.0253 1.10475 13.8783 1.00016 13.7147 0.928454C13.5511 0.856745 13.3745 0.819444 13.1959 0.818869H5.38009C5.20866 0.817878 5.03871 0.850737 4.88001 0.915562C4.7213 0.980387 4.57694 1.0759 4.45523 1.19663L1.19865 4.44019C1.07792 4.5619 0.982401 4.70626 0.917576 4.86496C0.852751 5.02367 0.819892 5.19362 0.820884 5.36505V13.1808C0.825682 13.5257 0.960612 13.8561 1.19865 14.1057L13.5606 26.4807C13.8102 26.7187 14.1406 26.8537 14.4855 26.8585C14.6569 26.8595 14.8269 26.8266 14.9856 26.7618C15.1443 26.697 15.2886 26.6014 15.4104 26.4807L26.4957 15.3953C26.6165 15.2736 26.712 15.1292 26.7768 14.9705C26.8416 14.8118 26.8745 14.6419 26.8735 14.4704C26.8655 14.1301 26.7308 13.8049 26.4957 13.5586ZM14.4855 23.7322L3.42615 12.6598V5.89913L5.90115 3.42413H12.6488L23.7211 14.4835L14.4855 23.7322Z" fill="black" stroke="black" stroke-width="0.5"/>
</svg>
