<svg width="28" height="28" viewBox="0 0 28 28" fill="none" xmlns="http://www.w3.org/2000/svg">
<path d="M0.736694 5.2136C0.736694 4.08352 1.18562 2.99973 1.9847 2.20064C2.78379 1.40156 3.86758 0.952637 4.99766 0.952637H20.0749C21.205 0.952637 22.2888 1.40156 23.0879 2.20064C23.887 2.99973 24.3359 4.08352 24.3359 5.2136V12.6316C24.2166 12.3692 24.0371 12.1385 23.8121 11.9584C23.5871 11.7782 23.3227 11.6536 23.0406 11.5946C22.8189 11.5458 22.5948 11.5086 22.3693 11.4831V8.1635H2.70329V20.2909C2.70329 21.5574 3.73117 22.5852 4.99766 22.5852H12.4393L12.1954 22.8291C11.7236 23.2975 11.4053 23.8983 11.2829 24.5518H4.99766C3.86758 24.5518 2.78379 24.1029 1.9847 23.3038C1.18562 22.5047 0.736694 21.4209 0.736694 20.2909V5.2136ZM17.7727 12.6644L15.5255 10.4185C15.4355 10.3219 15.3269 10.2444 15.2063 10.1907C15.0857 10.137 14.9555 10.1081 14.8235 10.1057C14.6914 10.1034 14.5603 10.1277 14.4379 10.1771C14.3154 10.2266 14.2042 10.3002 14.1108 10.3936C14.0175 10.4869 13.9439 10.5982 13.8944 10.7206C13.8449 10.843 13.8207 10.9742 13.823 11.1062C13.8253 11.2382 13.8542 11.3685 13.908 11.4891C13.9617 11.6097 14.0392 11.7182 14.1358 11.8083L16.3528 14.0266C16.7562 13.5045 17.2347 13.0464 17.7727 12.6644ZM2.70329 6.1969H22.3693V5.2136C22.3693 4.6051 22.1276 4.02152 21.6973 3.59124C21.267 3.16096 20.6834 2.91924 20.0749 2.91924H4.99766C4.38916 2.91924 3.80558 3.16096 3.3753 3.59124C2.94502 4.02152 2.70329 4.6051 2.70329 5.2136V6.1969ZM10.9368 11.8083C11.0334 11.7182 11.1109 11.6097 11.1646 11.4891C11.2184 11.3685 11.2473 11.2382 11.2496 11.1062C11.2519 10.9742 11.2276 10.843 11.1782 10.7206C11.1287 10.5982 11.0551 10.4869 10.9618 10.3936C10.8684 10.3002 10.7572 10.2266 10.6347 10.1771C10.5123 10.1277 10.3811 10.1034 10.2491 10.1057C10.1171 10.1081 9.98687 10.137 9.86626 10.1907C9.74564 10.2444 9.63708 10.3219 9.54706 10.4185L5.61386 14.3517C5.42972 14.5361 5.32629 14.786 5.32629 15.0466C5.32629 15.3072 5.42972 15.5571 5.61386 15.7415L9.54706 19.6747C9.63708 19.7713 9.74564 19.8488 9.86626 19.9025C9.98687 19.9562 10.1171 19.9851 10.2491 19.9875C10.3811 19.9898 10.5123 19.9655 10.6347 19.9161C10.7572 19.8666 10.8684 19.793 10.9618 19.6996C11.0551 19.6063 11.1287 19.495 11.1782 19.3726C11.2276 19.2502 11.2519 19.119 11.2496 18.987C11.2473 18.855 11.2184 18.7247 11.1646 18.6041C11.1109 18.4835 11.0334 18.375 10.9368 18.2849L7.69846 15.0466L10.9368 11.8083ZM22.7613 12.8755C23.2241 12.9764 23.3382 13.5402 23.0038 13.8745L20.5063 16.3708C20.1307 16.7463 19.9198 17.2556 19.9198 17.7867C19.9198 18.3178 20.1307 18.8271 20.5063 19.2027C20.8818 19.5782 21.3911 19.7892 21.9222 19.7892C22.4533 19.7892 22.9626 19.5782 23.3382 19.2027L25.8358 16.7064C26.1701 16.3721 26.7338 16.4862 26.8348 16.949C27.0438 17.9059 26.9857 18.9019 26.6668 19.828C26.348 20.7542 25.7807 21.5749 25.0269 22.2004C24.2731 22.8259 23.3619 23.2321 22.3928 23.3747C21.4237 23.5172 20.4341 23.3906 19.5321 23.0087L15.9542 26.5879C15.5787 26.9635 15.0694 27.1744 14.5383 27.1744C14.0072 27.1744 13.4979 26.9635 13.1223 26.5879C12.7468 26.2124 12.5358 25.7031 12.5358 25.172C12.5358 24.6409 12.7468 24.1315 13.1223 23.756L16.7016 20.1768C16.3191 19.2748 16.1922 18.2851 16.3345 17.3158C16.4769 16.3465 16.8831 15.435 17.5087 14.6811C18.1343 13.9271 18.9552 13.3598 19.8816 13.0411C20.8081 12.7224 21.8043 12.666 22.7613 12.8755Z" fill="black" stroke="black" stroke-width="0.7"/>
</svg>
