<svg width="30" height="24" viewBox="0 0 30 24" fill="none" xmlns="http://www.w3.org/2000/svg">
<path d="M29.0664 10.6139C28.5098 4.60458 23.0714 0.308105 17.0763 0.308105C16.8051 0.308105 16.5339 0.322379 16.2627 0.336653C0.575562 1.36438 0.575562 19.1498 0.575562 19.1498V20.2917C0.575562 21.8618 1.86022 23.1465 3.43036 23.1465H17.7043C24.3703 23.1465 29.7088 17.4226 29.0664 10.6139ZM5.22888 11.0992C6.0425 9.2579 7.05595 7.74485 8.28351 6.54584L13.4507 8.72976C14.3071 9.08661 14.8495 9.9145 14.8495 10.8423C14.8495 12.1127 13.8218 13.1404 12.5514 13.1404H4.45809C4.6722 12.4838 4.91485 11.7987 5.22888 11.0992ZM24.042 17.494C23.2375 18.3745 22.2586 19.0779 21.1675 19.5596C20.0764 20.0412 18.897 20.2905 17.7043 20.2917H3.43036V19.1498C3.43036 19.1212 3.44463 17.8366 3.77293 16.0095H12.5514C15.392 16.0095 17.7043 13.6971 17.7043 10.8566C17.7043 8.78685 16.4625 6.91696 14.5641 6.11762L10.9956 4.60458C12.5657 3.79096 14.3785 3.31992 16.4482 3.19145C16.6623 3.1629 16.8765 3.1629 17.0763 3.1629C21.801 3.1629 25.8262 6.54584 26.2259 10.8851C26.4543 13.3403 25.6835 15.6812 24.042 17.494Z" fill="black"/>
</svg>
