<svg width="24" height="33" viewBox="0 0 24 33" fill="none" xmlns="http://www.w3.org/2000/svg">
<path d="M8.98456 30.8188H14.71M6.12187 20.7994H17.5726M1.82782 12.2113C1.82782 9.55401 2.88344 7.00553 4.76245 5.12652C6.64145 3.24751 9.18994 2.19189 11.8473 2.19189C14.5046 2.19189 17.0531 3.24751 18.9321 5.12652C20.8111 7.00553 21.8667 9.55401 21.8667 12.2113C21.8676 13.8246 21.4775 15.414 20.7296 16.8434C19.9817 18.2728 18.8985 19.4996 17.5726 20.4187L16.7969 24.0915C16.6941 24.7685 16.3522 25.3862 15.833 25.8327C15.3138 26.2791 14.6518 26.5247 13.9671 26.5248H9.72743C9.0427 26.5247 8.38069 26.2791 7.86151 25.8327C7.34233 25.3862 7.00036 24.7685 6.89766 24.0915L6.12187 20.4344C4.79559 19.5121 3.71229 18.2824 2.96453 16.8505C2.21676 15.4185 1.82676 13.8268 1.82782 12.2113Z" stroke="black" stroke-width="3" stroke-linecap="round" stroke-linejoin="round"/>
</svg>
